<?xml version="1.0" standalone="no"?>
<!DOCTYPE svg PUBLIC "-//W3C//DTD SVG 20010904//EN"
 "http://www.w3.org/TR/2001/REC-SVG-20010904/DTD/svg10.dtd">
<svg version="1.0" xmlns="http://www.w3.org/2000/svg"
 width="310.000000pt" height="310.000000pt" viewBox="0 0 310.000000 310.000000"
 preserveAspectRatio="xMidYMid meet">
<metadata>
Created by potrace 1.11, written by Peter Selinger 2001-2013
</metadata>
<g transform="translate(0.000000,310.000000) scale(0.100000,-0.100000)"
fill="#000000" stroke="none">
<path d="M1399 3046 c-2 -2 -26 -6 -54 -10 -86 -11 -117 -17 -205 -43 -396
-114 -714 -370 -913 -733 -36 -67 -104 -226 -111 -264 -3 -12 -10 -37 -16 -56
-6 -19 -20 -84 -30 -145 -26 -145 -21 -405 8 -542 54 -247 157 -466 306 -650
86 -105 294 -293 324 -293 6 0 12 -4 14 -8 10 -25 204 -124 324 -165 194 -67
283 -82 499 -82 211 0 302 14 480 71 121 40 350 155 385 194 3 3 18 14 34 24
43 27 82 62 173 152 205 205 341 459 404 754 19 87 23 137 23 290 0 237 -12
315 -80 511 -124 357 -379 650 -725 832 -204 107 -406 158 -660 163 -96 3
-177 3 -180 0z"/>
</g>
</svg>
